PathFileType	4	(X/Y/Z)	C:/Users/opensim2020/Desktop/walking_exp_matlab/subject01_walking13_straight_04.trc																																																																																																																												
DataRate	CameraRate	NumFrames	NumMarkers	Units	OrigDataRate	OrigDataStartFrame	OrigNumFrames																																																																																																																								
100	100	4	42	mm	100	2109	135																																																																																																																								
Frame#	Time	LFHD			RFHD			LBHD			RBHD			C7			T10			CLAV			STRN			RBAK			LSHO			LUPA			LELB			LFRM			LWRA			LWRB			LFIN			RSHO			RUPA			RELB			RFRM			RWRA			RWRB			RFIN			LASI			RASI			LPSI			RPSI			LTHI			LKNE			LTIB			LANK			LHEE			LTOE			RTHI			RKNE			RTIB			RANK			RHEE			RTOE			*39			*40			*41		
		X1	Y1	Z1	X2	Y2	Z2	X3	Y3	Z3	X4	Y4	Z4	X5	Y5	Z5	X6	Y6	Z6	X7	Y7	Z7	X8	Y8	Z8	X9	Y9	Z9	X10	Y10	Z10	X11	Y11	Z11	X12	Y12	Z12	X13	Y13	Z13	X14	Y14	Z14	X15	Y15	Z15	X16	Y16	Z16	X17	Y17	Z17	X18	Y18	Z18	X19	Y19	Z19	X20	Y20	Z20	X21	Y21	Z21	X22	Y22	Z22	X23	Y23	Z23	X24	Y24	Z24	X25	Y25	Z25	X26	Y26	Z26	X27	Y27	Z27	X28	Y28	Z28	X29	Y29	Z29	X30	Y30	Z30	X31	Y31	Z31	X32	Y32	Z32	X33	Y33	Z33	X34	Y34	Z34	X35	Y35	Z35	X36	Y36	Z36	X37	Y37	Z37	X38	Y38	Z38	X39	Y39	Z39	X40	Y40	Z40	X41	Y41	Z41	X42	Y42	Z42
																																																																																																																															
1	0	-982.33716	1655.41614	-1479.53381	-960.44354	1664.73865	-1369.07593	-1098.10193	1614.84668	-1460.70667	-1079.21716	1623.52649	-1343.50012	-1142.91797	1428.77002	-1410.22034	-1197.55371	1138.15466	-1396.05212	-1004.63885	1350.42285	-1416.93591	-971.03656	1194.36853	-1418.93652	-1207.54419	1241.12463	-1323.5127	-1075.36536	1380.0835	-1574.5	-1162.87585	1214.04956	-1647.70288	-1221.18054	1073.39429	-1642.29321	-1209.51196	957.52631	-1664.30798	-1152.94495	829.79846	-1647.03687	-1210.60181	835.50055	-1664.19836	-1179.90979	758.27747	-1678.19873	-1057.10754	1386.86877	-1263.64734	-1124.05823	1203.71619	-1145.24805	-1128.08838	1076.57861	-1127.04004	-1043.64966	980.83282	-1125.46826	-927.68445	927.82477	-1185.73499	-950.31891	902.94257	-1139.03015	-876.14227	870.79529	-1154.84595	-1026.35144	928.31006	-1504.9541	-1035.6106	921.255	-1287.08984	-1214.40894	944.18878	-1461.58215	-1217.59338	951.20001	-1317.90149	-979.86591	617.11237	-1589.27124	-940.74219	491.88535	-1574.40491	-936.7146	308.41028	-1596.77417	-878.24268	87.91567	-1562.4021	-904.8924	42.94089	-1505.38843	-730.07245	98.26277	-1578.08154	-1168.88086	602.8772	-1249.27832	-1205.38696	447.2627	-1282.10437	-1300.6842	298.67734	-1281.13757	-1381.50061	108.26917	-1335.60925	-1440.49268	86.70199	-1382.05664	-1254.23474	40.35484	-1352.13342	-972.44	1697.76831	-1391.39124	-1973.19421	1023.54474	3101.8252	-2012.48474	1022.07281	3140.60767
2	0.01	-969.39789	1653.92737	-1482.35193	-947.59436	1663.16895	-1371.82617	-1085.15723	1613.36218	-1463.54932	-1066.27246	1622.06494	-1346.22864	-1130.11633	1427.28735	-1413.06104	-1184.57495	1136.6322	-1398.83228	-991.85529	1348.80566	-1419.41833	-960.15485	1192.39709	-1421.23035	-1194.95642	1239.89636	-1326.2312	-1062.29309	1378.34521	-1577.16772	-1149.68457	1212.06946	-1650.22107	-1208.21814	1071.63928	-1644.46997	-1197.37561	955.71631	-1666.27417	-1141.86157	827.60211	-1648.90979	-1199.18994	834.04126	-1666.70056	-1169.36292	756.21204	-1679.9491	-1044.0249	1385.67432	-1266.25269	-1111.25464	1202.5238	-1147.91345	-1115.00891	1075.36426	-1129.46423	-1029.87817	980.55792	-1128.08728	-913.22296	928.61566	-1188.39563	-935.78912	903.41162	-1141.87366	-861.15656	871.88721	-1157.32336	-1012.25818	926.71198	-1506.49719	-1022.591	920.59375	-1288.1698	-1200.60364	942.26971	-1464.85303	-1205.09497	950.17328	-1321.31091	-968.1778	614.70569	-1592.09534	-927.70532	490.40259	-1575.47534	-918.30017	307.26331	-1597.38354	-854.52692	88.08607	-1562.41089	-880.06995	42.70375	-1505.40308	-706.62268	101.80709	-1577.92212	-1158.44312	602.53284	-1249.81738	-1196.13	446.80588	-1282.35229	-1294.52234	300.31274	-1280.94714	-1379.38477	111.37592	-1334.63708	-1438.8584	91.28285	-1381.01563	-1253.97778	40.33638	-1351.87451	-959.5343	1696.3374	-1394.26929	-1973.23035	1023.60101	3101.95337	-2012.55542	1022.20966	3140.76953
3	0.02	-956.37146	1652.44165	-1485.08459	-934.78003	1661.79749	-1374.63818	-1072.15417	1611.90015	-1466.51428	-1053.47107	1620.7179	-1349.21655	-1117.24158	1425.8678	-1415.95459	-1171.45959	1135.09253	-1401.67749	-979.02698	1347.40918	-1421.94019	-947.07684	1190.97998	-1423.39124	-1182.25732	1238.6814	-1329.08594	-1049.20227	1376.61682	-1579.98181	-1136.38379	1209.99072	-1652.82751	-1194.96985	1069.80005	-1646.85449	-1184.75415	953.84204	-1668.46631	-1130.13342	825.35876	-1650.92322	-1187.51904	832.02985	-1668.4021	-1158.1261	754.05212	-1681.79285	-1031.63977	1384.44348	-1269.08057	-1098.3335	1201.28223	-1150.5553	-1102.02063	1074.15271	-1132.0885	-1016.12305	980.0401	-1130.70032	-899.03882	929.21008	-1190.97034	-921.38226	903.58148	-1144.16321	-846.66339	872.72479	-1159.78186	-997.93774	925.13495	-1507.93604	-1009.89075	919.78571	-1289.63269	-1186.65625	940.34039	-1468.18774	-1192.42859	949.00397	-1324.88635	-955.13757	612.96411	-1594.29993	-914.13928	489.28473	-1576.38635	-901.08606	305.96298	-1597.60608	-834.03033	87.79678	-1561.89563	-858.90027	42.13251	-1504.62573	-686.39276	103.79932	-1577.19287	-1147.16101	602.01306	-1250.50977	-1185.8667	446.40027	-1282.67859	-1287.578	302.04053	-1281.12292	-1376.7887	114.69295	-1333.71912	-1436.79346	96.3109	-1379.99915	-1253.58582	40.31543	-1351.48486	-946.65094	1694.89575	-1397.06995	-1973.125	1023.55884	3101.96704	-2012.48877	1022.11462	3140.86694
4	0.03	-943.34619	1651.12646	-1488.16223	-921.85101	1660.60437	-1377.62988	-1059.15613	1610.54163	-1469.56848	-1040.61987	1619.42407	-1352.37305	-1104.3739	1424.56799	-1419.09961	-1158.20972	1133.59583	-1404.54309	-966.07758	1346.03455	-1424.60962	-933.97052	1189.76953	-1425.62366	-1169.4375	1237.36108	-1332.04285	-1036.10425	1374.89807	-1582.82007	-1122.87769	1207.90991	-1655.52148	-1181.33899	1067.71655	-1649.22778	-1171.70154	951.8623	-1670.7135	-1117.78027	823.0213	-1652.95288	-1175.04053	829.96954	-1670.40991	-1146.14026	751.96649	-1683.85986	-1018.66473	1383.26196	-1271.85974	-1085.52051	1200.12195	-1153.35718	-1089.19312	1072.97046	-1134.76318	-1002.87244	979.15546	-1133.23218	-885.2594	929.38226	-1193.34326	-907.62823	903.62842	-1147.02625	-832.57855	873.12537	-1162.10693	-983.43481	923.80157	-1509.45508	-996.83643	919.00287	-1290.979	-1172.49512	938.38507	-1471.52222	-1179.47192	947.61926	-1328.48853	-940.50684	611.75763	-1595.58276	-899.81409	488.39886	-1577.04004	-885.09052	304.3114	-1597.18762	-816.76062	86.9267	-1560.72754	-841.28552	41.20606	-1503.36951	-669.12872	103.88237	-1575.57434	-1135.13269	601.63245	-1251.35144	-1175.23828	446.16519	-1282.93884	-1280.30615	303.89822	-1280.75061	-1373.86072	118.4289	-1332.77808	-1434.23462	101.93794	-1379.04614	-1253.16589	40.27864	-1351.2323	-933.75201	1693.66675	-1400.06433	-1973.14282	1023.43207	3101.94727	-2012.61414	1022.16364	3140.78174
